HIERARCHY
ROOT pelvis
{
  OFFSET 0 100 0
  CHANNELS 6 Xposition Yposition Zposition Zrotation Xrotation Yrotation
  JOINT pelvis_right_femur
  {
    OFFSET -10.78128 -3.44521 -0.5502486
    CHANNELS 3 Zrotation Xrotation Yrotation
    JOINT right_femur_tibia
    {
      OFFSET -0.8047443 -44.0398 -0.1307829
      CHANNELS 3 Zrotation Xrotation Yrotation
      JOINT right_tibia_foot
      {
        OFFSET 3.006224 -47.83518 -5
        CHANNELS 3 Zrotation Xrotation Yrotation
        End Site
        {
          OFFSET 0 -5 15
        }
      }
    }
  }
  JOINT pelvis_left_femur
  {
    OFFSET 10.78128 -3.44521 -0.5502486
    CHANNELS 3 Zrotation Xrotation Yrotation
    JOINT left_femur_tibia
    {
      OFFSET 0.8047443 -44.0398 -0.1307829
      CHANNELS 3 Zrotation Xrotation Yrotation
      JOINT left_tibia_foot
      {
        OFFSET -4.370144 -48.10324 -4.275266
        CHANNELS 3 Zrotation Xrotation Yrotation
        End Site
        {
          OFFSET 0 -5 15
        }
      }
    }
  }
  JOINT pelvis_spine1
  {
    OFFSET 0 6.468898 -3.129235
    CHANNELS 3 Zrotation Xrotation Yrotation
    JOINT spine1
    {
      OFFSET 0 23.15396 4.99043
      CHANNELS 3 Zrotation Xrotation Yrotation
      JOINT spine2
      {
        OFFSET 0 20.79997 -5.064912
        CHANNELS 3 Zrotation Xrotation Yrotation
        JOINT neck
        {
          OFFSET 0 14.38658 9.616178
          CHANNELS 3 Zrotation Xrotation Yrotation
          End Site
          {
            OFFSET 0 20 0
          }
        }
      }
      JOINT right_manubrium
      {
        OFFSET -5.722621 16.35077 3.967754
        CHANNELS 3 Zrotation Xrotation Yrotation
        JOINT right_clavicle
        {
          OFFSET -13.16364 1.694482 -4.693211
          CHANNELS 3 Zrotation Xrotation Yrotation
          JOINT right_humerus
          {
            OFFSET -28.5034 -0.3100689 -2.792744
            CHANNELS 3 Zrotation Xrotation Yrotation
            JOINT right_radius
            {
              OFFSET -25.15693 0.02248979 -1.271978
              CHANNELS 3 Zrotation Xrotation Yrotation
              End Site
              {
                OFFSET -15 0 0
              }
            }
          }
        }
      }
      JOINT left_manubrium
      {
        OFFSET 5.722621 16.35077 3.967754
        CHANNELS 3 Zrotation Xrotation Yrotation
        JOINT left_clavicle
        {
          OFFSET 13.16364 1.694482 -4.693211
          CHANNELS 3 Zrotation Xrotation Yrotation
          JOINT left_humerus
          {
            OFFSET 29.39168 -1.063119 -2.237045
            CHANNELS 3 Zrotation Xrotation Yrotation
            JOINT left_radius
            {
              OFFSET 24.59957 -0.9528479 0.9047498
              CHANNELS 3 Zrotation Xrotation Yrotation
              End Site
              {
                OFFSET 15 -0 -0
              }
            }
          }
        }
      }
    }
  }
}
MOTION
Frames: 17
Frame Time: 0.0416666666667
-750.8213 110.5831 2868.068 -2.213585 -4.302812 -35.97198 1.578156 -14.16733 1.453907 -0 30.30811 -0 -3.520297 -1.337868 -4.18264 -4.96081 6.935473 -11.07684 -0 13.27622 -0 -1.404328 -16.21209 16.48291 0.5718426 -2.236567 5.450309 0.05004987 13.94358 -6.295572 1.895663 21.67123 4.032198 1.242407 -18.63543 6.219108 -2.458846 -22.87322 11.48618 92.72318 16.11046 -17.82322 -0 0 15.52918 -23.50062 13.53347 12.21159 4.129685 -23.94213 -7.850428 -89.30149 18.1866 21.56151 0 0 -20.48457 4.058349 12.98532 9.356136
-753.926 110.2201 2872.73 -1.905694 -3.322545 -35.51879 2.313346 -18.6404 0.6739251 -0 22.12882 -0 -4.689495 -2.169586 -3.982423 -4.561707 9.558296 -10.85082 -0 12.53437 -0 -1.082982 -17.13825 15.63546 0.6593457 -2.401445 4.836429 0.3842565 14.07784 -6.984504 1.878242 21.65339 4.095119 1.225594 -18.89456 6.31464 -2.634909 -22.17368 11.45681 94.16273 15.68891 -20.05096 -0 0 13.50982 -22.76213 13.57722 11.42628 4.363224 -25.07287 -8.2383 -87.95481 18.17432 19.27911 0 0 -23.23981 4.928457 13.30112 8.454652
-757.1996 109.4932 2877.403 -1.759714 -2.600679 -35.18377 2.927987 -22.26482 -0.1021036 -0 14.79112 -0 -5.642867 -2.543773 -3.887467 -4.153422 11.71694 -10.28352 -0 12.9534 -0 -1.141779 -17.68037 14.60364 0.7420468 -2.55813 4.30082 0.6831447 14.20531 -7.596937 1.860129 21.63121 4.147933 1.210831 -19.14059 6.395538 -2.795251 -21.58288 11.43682 95.43813 15.26315 -22.00034 -0 0 11.74673 -22.09404 13.60671 10.72925 4.559135 -26.08342 -8.585502 -86.80565 18.11665 17.31183 0 0 -25.66971 5.712365 13.58591 7.649521
-760.6843 108.582 2882.176 -1.797886 -2.273244 -34.94119 3.379731 -24.6541 -0.7012123 -0 9.70482 -0 -6.225384 -2.343933 -3.957689 -3.853366 13.30486 -9.519715 -0 14.9896 -0 -1.591746 -17.72555 13.53798 0.828857 -2.709331 3.905767 0.9200393 14.3407 -8.081662 1.840245 21.59409 4.176613 1.192431 -19.37314 6.447547 -2.948708 -21.20768 11.43187 96.4529 14.84279 -23.50337 -0 0 10.44165 -21.55085 13.6296 10.18941 4.688022 -26.90059 -8.878489 -85.9871 18.03626 15.93274 0 0 -27.55922 6.330957 13.83677 7.036955
-764.3847 107.7101 2887.107 -2.007782 -2.362606 -34.77178 3.717616 -25.59679 -0.9872255 -0 7.360386 -0 -6.415816 -1.713958 -4.191001 -3.691375 14.17129 -8.699764 -0 18.82386 -0 -2.346188 -17.2105 12.60083 0.9251467 -2.856743 3.682636 1.081197 14.49353 -8.412896 1.817995 21.53662 4.1737 1.167318 -19.59184 6.462948 -3.101186 -21.10294 11.44414 97.16009 14.44326 -24.48138 -0 0 9.695831 -21.1608 13.65224 9.841812 4.736317 -27.48862 -9.112243 -85.55885 17.95641 15.27988 0 0 -28.80042 6.745295 14.05679 6.663627
-768.2728 107.0853 2892.206 -2.351963 -2.784206 -34.68057 4.048664 -25.07176 -0.8968564 -0 7.258497 -0 -6.32418 -1.005212 -4.529187 -3.606182 14.14173 -7.918335 -0 24.37996 -0 -3.263394 -16.1231 11.91825 1.02689 -2.994593 3.629385 1.163866 14.65878 -8.585788 1.794247 21.46312 4.141137 1.137682 -19.78748 6.442386 -3.247219 -21.25604 11.47116 97.55198 14.09372 -24.9334 -0 0 9.503101 -20.93163 13.67495 9.689143 4.709928 -27.83912 -9.282424 -85.50748 17.88631 15.33309 0 0 -29.37946 6.958007 14.24466 6.519771
-772.289 106.8602 2897.417 -2.781449 -3.401576 -34.70248 4.472459 -23.13203 -0.4165657 -0 8.474104 -0 -6.120721 -0.6618293 -4.87799 -3.496968 13.02144 -7.256598 -0 31.37089 -0 -4.178486 -14.49309 11.60185 1.1287 -3.115676 3.739544 1.166602 14.82837 -8.598303 1.770222 21.37907 4.082137 1.105967 -19.94947 6.388084 -3.379641 -21.64485 11.51003 97.62776 13.81725 -24.86742 -0 0 9.843246 -20.86884 13.69677 9.72995 4.616673 -27.94671 -9.383701 -85.81448 17.82403 16.04961 0 0 -29.29682 6.973708 14.39496 6.59296
-776.3427 107.1101 2902.626 -3.238851 -4.067924 -34.89017 5.013205 -19.88331 0.4151824 -0 10.17404 -0 -5.96073 -1.073467 -5.13032 -3.283768 10.67329 -6.806268 -0 39.15799 -0 -4.924004 -12.43209 11.75393 1.230164 -3.217249 4.01626 1.086367 15.00004 -8.445863 1.746461 21.28486 3.996419 1.071289 -20.07438 6.300256 -3.497406 -22.27083 11.55983 97.38401 13.61611 -24.27515 -0 0 10.72676 -20.97936 13.71936 9.969689 4.456138 -27.80296 -9.412342 -86.48833 17.76276 17.43565 0 0 -28.53975 6.779356 14.50241 6.897571
-780.3317 107.8061 2907.698 -3.656808 -4.640693 -35.28653 5.585789 -15.61191 1.444676 -0 11.68368 -0 -5.937789 -2.397467 -5.188671 -2.937331 7.169246 -6.606227 -0 46.5139 -0 -5.368857 -10.19593 12.38737 1.33587 -3.303367 4.455331 0.9273636 15.17729 -8.138404 1.722516 21.17681 3.883167 1.030184 -20.17087 6.18039 -3.606397 -23.13521 11.62047 96.84714 13.46629 -23.18606 -0 0 12.13938 -21.25186 13.74603 10.39956 4.226696 -27.4225 -9.373533 -87.52804 17.68913 19.47897 0 0 -27.15026 6.368183 14.56734 7.448283
-784.182 108.8004 2912.552 -3.970805 -5.012487 -35.89548 6.036675 -10.82551 2.392759 -0 12.45421 -0 -6.052226 -4.429768 -4.993081 -2.468337 2.856755 -6.56047 -0 51.76665 -0 -5.466278 -8.15352 13.35179 1.450751 -3.382804 5.022966 0.7093183 15.36408 -7.715913 1.697312 21.05264 3.746507 0.9805089 -20.2567 6.035472 -3.714483 -24.19884 11.69042 96.10161 13.32835 -21.72311 -0 0 13.97013 -21.6403 13.77771 10.97369 3.938516 -26.86681 -9.285597 -88.87131 17.58018 22.05048 0 0 -25.2895 5.777184 14.59921 8.211686
-787.8771 109.8604 2917.216 -4.144396 -5.155706 -36.67324 6.238259 -6.039036 2.982029 -0 12.23383 -0 -6.216612 -6.701904 -4.538233 -1.893112 -1.797454 -6.472189 -0 53.52286 -0 -5.260327 -6.625135 14.4015 1.572738 -3.459324 5.665595 0.457904 15.55559 -7.228913 1.670692 20.91714 3.59646 0.9247345 -20.34206 5.87683 -3.821464 -25.38109 11.76574 95.24774 13.18092 -20.04967 -0 0 16.04469 -22.08874 13.81063 11.6283 3.614546 -26.21177 -9.167087 -90.40604 17.41318 24.92662 0 0 -23.1649 5.075434 14.6067 9.109925
-791.4469 110.7422 2921.798 -4.177663 -5.118908 -37.54629 6.151298 -1.528508 3.094246 -0 11.18811 -0 -6.321765 -8.787946 -3.861016 -1.220429 -6.447366 -6.188654 -0 51.33636 -0 -4.832738 -5.739844 15.35902 1.688365 -3.521481 6.34258 0.1858239 15.73072 -6.701235 1.645244 20.78317 3.444939 0.869079 -20.41245 5.715728 -3.911868 -26.59562 11.841 94.3261 13.04461 -18.25376 -0 0 18.23327 -22.57665 13.8383 12.32625 3.278029 -25.4853 -9.016589 -92.03494 17.18104 27.90793 0 0 -20.88739 4.306355 14.57866 10.08195
-794.9313 111.2522 2926.421 -4.092416 -4.975672 -38.43795 5.816136 2.652362 2.801483 -0 9.752748 -0 -6.303415 -10.50215 -3.021812 -0.4733285 -10.91855 -5.698142 -0 45.72155 -0 -4.249841 -5.445352 16.18784 1.776927 -3.546046 7.0354 -0.1089634 15.85675 -6.12704 1.62595 20.66724 3.302493 0.8201974 -20.43402 5.561743 -3.960485 -27.77152 11.91091 93.31326 12.96464 -16.33163 -0 0 20.48005 -23.12235 13.8546 13.06456 2.944639 -24.66267 -8.813775 -93.69987 16.89517 30.86574 0 0 -18.45773 3.468505 14.48249 11.11143
-798.3539 111.2805 2931.166 -3.921451 -4.791227 -39.28618 5.311437 6.469789 2.286957 -0 8.439691 -0 -6.15166 -11.83026 -2.1067 0.2825107 -15.05959 -5.111503 -0 37.82959 -0 -3.565306 -5.599031 16.93036 1.81757 -3.509929 7.724718 -0.4272256 15.90035 -5.502508 1.618351 20.58541 3.179407 0.7834742 -20.37242 5.425377 -3.943597 -28.83632 11.97044 92.18537 12.98099 -14.281 -0 0 22.72666 -23.74517 13.85536 13.83995 2.628137 -23.71977 -8.539559 -95.33788 16.5851 33.671 0 0 -15.88572 2.554507 14.28243 12.19053
-801.7211 110.8227 2936.058 -3.714533 -4.627834 -40.05039 4.72002 9.770008 1.761831 -0 7.781009 -0 -5.884023 -12.76075 -1.241483 0.925874 -18.60062 -4.597532 -0 29.25217 -0 -2.861884 -6.024597 17.61579 1.794085 -3.400405 8.362531 -0.7519753 15.8374 -4.85817 1.626721 20.55228 3.088525 0.7640056 -20.20797 5.320683 -3.847234 -29.68788 12.01367 90.98043 13.11642 -12.20237 -0 0 24.81948 -24.42649 13.83805 14.61064 2.351886 -22.68927 -8.196697 -96.82195 16.30399 36.10063 0 0 -13.31154 1.606384 13.96435 13.25948
-805.039 109.9884 2941.079 -3.541999 -4.557251 -40.70884 4.10395 12.32483 1.40019 -0 8.295575 -0 -5.516924 -13.18999 -0.5789271 1.309514 -21.18481 -4.30607 -0 21.74703 -0 -2.274297 -6.537822 18.21323 1.69897 -3.221015 8.870929 -1.047064 15.66254 -4.262357 1.652216 20.57942 3.0442 0.7683203 -19.94296 5.262059 -3.671506 -30.20268 12.03416 89.80807 13.38047 -10.31306 -0 0 26.50403 -25.10027 13.80025 15.29099 2.152136 -21.67476 -7.817235 -97.96119 16.1203 37.8457 0 0 -11.01106 0.7406189 13.55633 14.17671
-808.3306 108.9731 2946.204 -3.471458 -4.646886 -41.24738 3.485978 13.99882 1.28281 -0 10.35651 -0 -5.048775 -12.96188 -0.238833 1.335844 -22.56038 -4.294197 -0 16.58223 -0 -1.943024 -6.998247 18.65337 1.53724 -2.989871 9.182953 -1.276703 15.39301 -3.784242 1.691912 20.66998 3.054997 0.8022359 -19.60034 5.255804 -3.429793 -30.30077 12.02815 88.78812 13.77312 -8.831443 -0 0 27.5582 -25.68689 13.7401 15.79614 2.061024 -20.79668 -7.446259 -98.59906 16.08319 38.67415 0 0 -9.244975 0.09321114 13.12102 14.78348
